<?xml version="1.0" encoding="utf-8"?>
<!-- Generator: Adobe Illustrator 24.0.0, SVG Export Plug-In . SVG Version: 6.00 Build 0)  -->
<svg version="1.1" id="Layer_1" xmlns="http://www.w3.org/2000/svg" xmlns:xlink="http://www.w3.org/1999/xlink" x="0px" y="0px"
	 viewBox="0 0 745.48 745.48" style="enable-background:new 0 0 745.48 745.48;" xml:space="preserve">
<style type="text/css">
	.st0{fill:#FCBD23;}
</style>
<g>
	<path class="st0" d="M693.08,298.76c-1.93-5.92-7.04-10.23-13.2-11.12L478.04,258.3L387.77,75.41c-2.76-5.58-8.44-9.12-14.66-9.12
		c-6.22,0-11.91,3.54-14.65,9.12L268.19,258.3L66.35,287.63c-6.16,0.89-11.28,5.21-13.2,11.12c-1.92,5.92-0.33,12.41,4.14,16.76
		l146.05,142.36l-34.48,201.03c-1.05,6.13,1.48,12.33,6.5,15.99c5.04,3.66,11.71,4.14,17.21,1.25l180.53-94.91l180.53,94.91
		c2.39,1.25,5,1.88,7.61,1.88c3.39,0,6.76-1.05,9.61-3.13c5.04-3.66,7.55-9.85,6.5-15.99l-34.48-201.03l146.05-142.36
		C693.39,311.16,695,304.67,693.08,298.76z M513.91,440.47c-3.85,3.76-5.61,9.16-4.7,14.47l30.34,176.86l-158.83-83.51
		c-2.38-1.25-4.99-1.88-7.61-1.88s-5.22,0.63-7.61,1.88l-158.82,83.51l30.32-176.86c0.91-5.31-0.85-10.71-4.7-14.47L103.82,315.22
		l177.57-25.81c5.33-0.77,9.93-4.11,12.31-8.94l79.41-160.9l79.41,160.9c2.38,4.83,6.98,8.17,12.31,8.94l177.57,25.81L513.91,440.47
		z"/>
</g>
</svg>
